# xmcd
#
# Track frame offsets: 
#        150
#        17340
#        36845
#        51435
#        76640
#        95145
#        115680
#        133950
#        155492
#        173700
#
# Disc length: 2534 seconds
#
# Revision: 0
# Processed by: cddbd v1.5.2PL0 Copyright (c) Steve Scherf et al.
# Submitted via: ExactAudioCopyFreeDBPlugin 1.0
#
DISCID=7809e40a
DTITLE=Keyla Jiménez - Pero llegaste Tú
DYEAR=2000
DGENRE=Tropical
TTITLE0=Pero llegaste Tú
TTITLE1=Hay que cantar
TTITLE2=El más grande es el Señor
TTITLE3=Nada se compara contigo
TTITLE4=Yo te agradezco
TTITLE5=Cantad a Dios
TTITLE6=Problema o solución
TTITLE7=Jesús y mi tierra
TTITLE8=No te escondas
TTITLE9=La vigilia
EXTD=
EXTT0=
EXTT1=
EXTT2=
EXTT3=
EXTT4=
EXTT5=
EXTT6=
EXTT7=
EXTT8=
EXTT9=
PLAYORDER=
